<svg xmlns="http://www.w3.org/2000/svg" viewBox="-8.6 -75.6 313 121.79">
  <path fill="#1C1A17" d="M12.60-8.10L12.60-54.40Q12.60-57.30 11.95-58.75Q11.30-60.20 9.40-60.75Q7.50-61.30 3.70-61.30Q3.50-61.30 3.50-61.90Q3.50-62.50 3.70-62.50Q6.10-62.50 9.05-62.35Q12-62.20 15.20-62.20Q18.70-62.20 21.60-62.35Q24.50-62.50 26.80-62.50Q27-62.50 27-61.90Q27-61.30 26.80-61.30Q23-61.30 21.10-60.70Q19.20-60.10 18.55-58.60Q17.90-57.10 17.90-54.20L17.90-8.10Q17.90-5.20 18.50-3.70Q19.10-2.20 21.05-1.70Q23-1.20 26.80-1.20Q27-1.20 27-0.60Q27 0 26.80 0Q24.40 0 21.55-0.10Q18.70-0.20 15.20-0.20Q12-0.20 9-0.10Q6 0 3.60 0Q3.40 0 3.40-0.60Q3.40-1.20 3.60-1.20Q7.40-1.20 9.35-1.70Q11.30-2.20 11.95-3.70Q12.60-5.20 12.60-8.10M37.30-14.50L20.90-34.90L25.10-37.90L39.50-19.80Q44.20-13.90 47.45-10.25Q50.70-6.60 52.90-4.70Q55.10-2.80 56.80-2.05Q58.50-1.30 60.05-1.25Q61.60-1.20 63.50-1.20Q63.80-1.20 63.80-0.60Q63.80 0 63.50 0Q59 0 56.30 0Q53.60 0 52.30 0Q50.30 0 49.30-0.05Q48.30-0.10 47.65-0.65Q47-1.20 46-2.70Q45-4.20 43-7.05Q41-9.90 37.30-14.50M16.60-29.50L14.20-29.40L39.90-55Q43.70-58.80 43.25-60.05Q42.80-61.30 37.50-61.30Q37.30-61.30 37.30-61.90Q37.30-62.50 37.50-62.50Q39.90-62.50 42.35-62.35Q44.80-62.20 48.80-62.20Q52.50-62.20 54.65-62.35Q56.80-62.50 58.80-62.50Q59.10-62.50 59.10-61.90Q59.10-61.30 58.80-61.30Q55.40-61.30 50.90-59.90Q46.40-58.50 42.20-54.40 M113.50 1.20Q106.30 1.20 100.45-1.35Q94.60-3.90 90.45-8.40Q86.30-12.90 84.05-18.75Q81.80-24.60 81.80-31.20Q81.80-39.30 84.95-45.40Q88.10-51.50 93.30-55.55Q98.50-59.60 104.70-61.60Q110.90-63.60 117-63.60Q124.40-63.60 130.25-60.95Q136.10-58.30 140.20-53.80Q144.30-49.30 146.45-43.60Q148.60-37.90 148.60-31.90Q148.60-24.90 145.80-18.90Q143-12.90 138.15-8.40Q133.30-3.90 126.95-1.35Q120.60 1.20 113.50 1.20M117.10-0.80Q124.10-0.80 129.80-4.05Q135.50-7.30 138.85-13.65Q142.20-20 142.20-29.10Q142.20-38.60 138.55-45.85Q134.90-53.10 128.30-57.25Q121.70-61.40 112.80-61.40Q101.20-61.40 94.70-54.20Q88.20-47 88.20-34.60Q88.20-27.60 90.25-21.45Q92.30-15.30 96.15-10.65Q100-6 105.30-3.40Q110.60-0.80 117.10-0.80 M221.50 0Q219.80 0 215.90-4.05Q212-8.10 206.50-15.55Q201-23 194.20-33.30L199-34.90Q207.60-22.30 213.60-14.95Q219.60-7.60 224.20-4.40Q228.80-1.20 233.10-1.20Q233.40-1.20 233.40-0.60Q233.40 0 233.10 0Q228.60 0 225.75 0Q222.90 0 221.50 0M193.20-62.80Q201.20-62.80 205.35-59.45Q209.50-56.10 209.50-50.30Q209.50-46.60 207.85-43.25Q206.20-39.90 203.30-37.35Q200.40-34.80 196.60-33.30Q192.80-31.80 188.50-31.80Q187.60-31.80 186.40-31.85Q185.20-31.90 184.20-32L184.20-8.10Q184.20-5.20 184.80-3.70Q185.40-2.20 187.35-1.70Q189.30-1.20 193.10-1.20Q193.40-1.20 193.40-0.60Q193.40 0 193.10 0Q190.70 0 187.85-0.10Q185-0.20 181.50-0.20Q178.30-0.20 175.30-0.10Q172.30 0 169.90 0Q169.70 0 169.70-0.60Q169.70-1.20 169.90-1.20Q173.70-1.20 175.65-1.70Q177.60-2.20 178.30-3.70Q179-5.20 179-8.10L179-54.40Q179-57.30 178.35-58.75Q177.70-60.20 175.80-60.75Q173.90-61.30 170.10-61.30Q169.80-61.30 169.80-61.90Q169.80-62.50 170.10-62.50Q172.40-62.50 175.35-62.35Q178.30-62.20 181.50-62.20Q184.10-62.20 187.55-62.50Q191-62.80 193.20-62.80M203.90-46.90Q203.90-52.30 202.15-55.50Q200.40-58.70 197.50-60.10Q194.60-61.50 190.90-61.50Q188.50-61.50 187-61.15Q185.50-60.80 184.85-59.30Q184.20-57.80 184.20-54.20L184.20-34.40Q185.60-34.30 187.25-34.15Q188.90-34 190.20-34Q197.50-34 200.70-37.05Q203.90-40.10 203.90-46.90 M289.90 0L248.60 0Q248.40 0 248.40-0.60Q248.40-1.20 248.60-1.20Q252.40-1.20 254.30-1.70Q256.20-2.20 256.85-3.70Q257.50-5.20 257.50-8.10L257.50-54.40Q257.50-57.30 256.85-58.75Q256.20-60.20 254.30-60.75Q252.40-61.30 248.60-61.30Q248.40-61.30 248.40-61.90Q248.40-62.50 248.60-62.50L288.20-62.50Q289.10-62.50 289.10-61.60L289.30-49.50Q289.30-49.20 288.75-49.20Q288.20-49.20 288.20-49.50Q288.20-54.70 285.50-57.65Q282.80-60.60 278.40-60.60L271.50-60.60Q267.80-60.60 265.95-60.10Q264.10-59.60 263.45-58.15Q262.80-56.70 262.80-53.80L262.80-8.50Q262.80-5.70 263.45-4.30Q264.10-2.90 265.95-2.40Q267.80-1.90 271.50-1.90L280.70-1.90Q284.70-1.90 287.60-5.40Q290.50-8.90 291.20-14.60Q291.20-14.90 291.80-14.85Q292.40-14.80 292.40-14.50Q292-11.90 291.75-8.25Q291.50-4.60 291.50-1.50Q291.50 0 289.90 0M284.30-23.50Q284.30-28 282.40-29.80Q280.50-31.60 275.70-31.60L260.30-31.60L260.30-33.50L276-33.50Q280.60-33.50 282.40-35.05Q284.20-36.60 284.20-40.40Q284.20-40.60 284.80-40.60Q285.40-40.60 285.40-40.40Q285.40-37.50 285.35-35.90Q285.30-34.30 285.30-32.50Q285.30-30.30 285.40-28.15Q285.50-26 285.50-23.50Q285.50-23.30 284.90-23.30Q284.30-23.30 284.30-23.50"/>
  <path fill="#9E8460" d="M21.24 27.45L19.43 27.45L23.99 34L25.99 34L21.24 27.45M18.67 20.70L17.06 20.70L17.06 34L18.67 34L18.67 20.70M17.95 20.70L17.95 22.13L20.67 22.13Q21.52 22.13 22.18 22.43Q22.83 22.73 23.20 23.30Q23.57 23.87 23.57 24.69Q23.57 25.51 23.20 26.08Q22.83 26.65 22.18 26.95Q21.52 27.25 20.67 27.25L17.95 27.25L17.95 28.68L20.67 28.68Q21.96 28.68 22.97 28.20Q23.99 27.71 24.59 26.81Q25.19 25.91 25.19 24.69Q25.19 23.45 24.59 22.56Q23.99 21.67 22.97 21.18Q21.96 20.70 20.67 20.70 M36.57 32.48L36.57 34L43.28 34L43.28 32.48L36.57 32.48M36.57 20.70L36.57 22.22L43.28 22.22L43.28 20.70L36.57 20.70M36.57 26.02L36.57 27.54L42.90 27.54L42.90 26.02L36.57 26.02M37.29 20.70L35.68 20.70L35.68 34L37.29 34 M52.78 20.70L52.78 22.22L56.20 22.22L56.20 34L57.81 34L57.81 22.22L61.23 22.22L61.23 20.70 M72.76 28.49L72.19 30.01L79.22 30.01L78.65 28.49L72.76 28.49M73.43 28.98L75.67 23.70L77.95 29.06L78.10 29.44L80.04 34L81.85 34L75.67 20.04L69.50 34L71.30 34L73.28 29.33 M93.06 20.70L91.44 20.70L91.44 34L93.06 34 M105.69 20.70L104.08 20.70L104.08 34L110.92 34L110.92 32.48L105.69 32.48 M135.90 20.70L134.29 20.70L134.29 34L135.90 34L135.90 20.70M135.18 20.70L135.18 22.22L137.90 22.22Q139.19 22.22 140 22.84Q140.80 23.45 140.80 24.69Q140.80 25.91 140 26.53Q139.19 27.16 137.90 27.16L135.18 27.16L135.18 28.68L137.90 28.68Q139.19 28.68 140.21 28.20Q141.22 27.71 141.82 26.81Q142.42 25.91 142.42 24.69Q142.42 23.45 141.82 22.56Q141.22 21.67 140.21 21.18Q139.19 20.70 137.90 20.70 M154.29 20.70L152.68 20.70L152.68 34L159.52 34L159.52 32.48L154.29 32.48 M171.05 28.49L170.48 30.01L177.51 30.01L176.94 28.49L171.05 28.49M171.72 28.98L173.96 23.70L176.24 29.06L176.39 29.44L178.33 34L180.13 34L173.96 20.04L167.78 34L169.59 34L171.56 29.33 M188.40 20.70L188.40 22.22L191.82 22.22L191.82 34L193.43 34L193.43 22.22L196.85 22.22L196.85 20.70 M207.44 20.70L207.44 22.22L213.38 22.22L213.38 20.70L207.44 20.70M207.44 26.02L207.44 27.54L213.19 27.54L213.19 26.02L207.44 26.02M208.16 20.70L206.54 20.70L206.54 34L208.16 34 M224.97 27.35Q224.97 25.85 225.63 24.67Q226.28 23.49 227.42 22.81Q228.56 22.13 230.01 22.13Q231.47 22.13 232.60 22.81Q233.73 23.49 234.39 24.67Q235.04 25.85 235.04 27.35Q235.04 28.85 234.39 30.03Q233.73 31.21 232.60 31.89Q231.47 32.58 230.01 32.58Q228.56 32.58 227.42 31.89Q226.28 31.21 225.63 30.03Q224.97 28.85 224.97 27.35M223.26 27.35Q223.26 28.79 223.77 30.05Q224.27 31.30 225.18 32.22Q226.09 33.15 227.33 33.67Q228.56 34.19 230.01 34.19Q231.47 34.19 232.70 33.67Q233.92 33.15 234.83 32.22Q235.75 31.30 236.25 30.05Q236.75 28.79 236.75 27.35Q236.75 25.89 236.25 24.64Q235.75 23.40 234.83 22.48Q233.92 21.55 232.70 21.03Q231.47 20.51 230.01 20.51Q228.56 20.51 227.33 21.03Q226.09 21.55 225.18 22.48Q224.27 23.40 223.77 24.64Q223.26 25.89 223.26 27.35 M251.19 27.45L249.39 27.45L253.95 34L255.94 34L251.19 27.45M248.63 20.70L247.01 20.70L247.01 34L248.63 34L248.63 20.70M247.91 20.70L247.91 22.13L250.62 22.13Q251.48 22.13 252.13 22.43Q252.79 22.73 253.16 23.30Q253.53 23.87 253.53 24.69Q253.53 25.51 253.16 26.08Q252.79 26.65 252.13 26.95Q251.48 27.25 250.62 27.25L247.91 27.25L247.91 28.68L250.62 28.68Q251.92 28.68 252.93 28.20Q253.95 27.71 254.55 26.81Q255.15 25.91 255.15 24.69Q255.15 23.45 254.55 22.56Q253.95 21.67 252.93 21.18Q251.92 20.70 250.62 20.70 M266.49 34L267.48 25.01L271.81 32.77L276.14 25.01L277.13 34L278.74 34L277.13 20.04L271.81 29.67L266.49 20.04L264.87 34"/>
</svg>
